<svg width="30" height="20" viewBox="0 0 30 20" fill="none" xmlns="http://www.w3.org/2000/svg">
<path d="M26.4576 0H2.68303C1.20368 0 0 1.20368 0 2.68303V17.317C0 18.7963 1.20368 20 2.68303 20H26.4576C27.937 20 29.1406 18.7963 29.1406 17.317V2.68303C29.1406 1.20356 27.937 0 26.4576 0ZM27.4638 17.317C27.4638 17.8717 27.0124 18.3231 26.4576 18.3231H2.68303C2.1282 18.3231 1.6769 17.8717 1.6769 17.317V2.68303C1.6769 2.12832 2.1282 1.6769 2.68303 1.6769H26.4576C27.0124 1.6769 27.4638 2.12832 27.4638 2.68303V17.317Z" fill="black"/>
<path d="M24.1518 4.78709H16.4455C16.0751 4.78709 15.7748 5.08748 15.7748 5.45785C15.7748 5.82822 16.0751 6.12861 16.4455 6.12861H24.1518C24.5223 6.12861 24.8225 5.82822 24.8225 5.45785C24.8225 5.08748 24.5223 4.78709 24.1518 4.78709Z" fill="black"/>
<path d="M24.1518 13.8714H16.4455C16.0751 13.8714 15.7748 14.1717 15.7748 14.5421C15.7748 14.9125 16.0751 15.2129 16.4455 15.2129H24.1518C24.5223 15.2129 24.8225 14.9125 24.8225 14.5421C24.8225 14.1717 24.5223 13.8714 24.1518 13.8714Z" fill="black"/>
<path d="M24.1517 8.6672H19.4879C19.1175 8.6672 18.8171 8.96759 18.8171 9.33796C18.8171 9.70833 19.1175 10.0087 19.4879 10.0087H24.1517C24.5222 10.0087 24.8224 9.70833 24.8224 9.33796C24.8224 8.96759 24.5222 8.6672 24.1517 8.6672Z" fill="black"/>
<path d="M24.1517 11.2692H19.4879C19.1175 11.2692 18.8171 11.5696 18.8171 11.9399C18.8171 12.3104 19.1175 12.6107 19.4879 12.6107H24.1517C24.5222 12.6107 24.8224 12.3104 24.8224 11.9399C24.8224 11.5696 24.5222 11.2692 24.1517 11.2692Z" fill="black"/>
<path d="M9.52062 10.3134C11.4216 10.3134 12.9681 8.76625 12.9681 6.86465C12.9681 4.96294 11.4216 3.41583 9.52062 3.41583C7.61914 3.41583 6.07214 4.96294 6.07214 6.86465C6.07214 8.76625 7.61914 10.3134 9.52062 10.3134ZM9.52062 5.09284C10.4969 5.09284 11.2912 5.88769 11.2912 6.86476C11.2912 7.84172 10.497 8.63657 9.52062 8.63657C8.54378 8.63657 7.74904 7.84172 7.74904 6.86476C7.74904 5.88769 8.54378 5.09284 9.52062 5.09284Z" fill="black"/>
<path d="M10.8548 10.9331H8.20736C6.35249 10.9331 4.84351 12.442 4.84351 14.2968V15.7457C4.84351 16.2088 5.2188 16.5842 5.68195 16.5842C6.14511 16.5842 6.5204 16.2088 6.5204 15.7457V14.2968C6.5204 13.3668 7.27724 12.61 8.20736 12.61H10.8548C11.785 12.61 12.5418 13.3666 12.5418 14.2968V15.7457C12.5418 16.2088 12.9171 16.5842 13.3802 16.5842C13.8434 16.5842 14.2187 16.2088 14.2187 15.7457V14.2968C14.2187 12.442 12.7096 10.9331 10.8548 10.9331Z" fill="black"/>
</svg>
