<svg width="56" height="76" viewBox="0 0 56 76" fill="none" xmlns="http://www.w3.org/2000/svg">
<path fill-rule="evenodd" clip-rule="evenodd" d="M28.9135 0.120025C30.4398 0.527347 31.5 1.89416 31.5 3.45484V27.6365H52.5C53.7533 27.6365 54.9108 28.2978 55.5348 29.3704C56.1592 30.443 56.1547 31.763 55.5233 32.8315L31.0233 74.2857C30.2263 75.634 28.6128 76.2873 27.0865 75.88C25.5601 75.4727 24.5 74.1057 24.5 72.5453V48.3637H3.5C2.24676 48.3637 1.0892 47.7021 0.465012 46.6295C-0.159177 45.5569 -0.154698 44.2369 0.476772 43.1684L24.9767 1.71422C25.7736 0.366124 27.3871 -0.287266 28.9135 0.120025ZM9.59364 41.4547H28C29.933 41.4547 31.5 43.0012 31.5 44.9092V59.7671L46.4065 34.5456H28C26.0669 34.5456 24.5 32.999 24.5 31.091V16.2328L9.59364 41.4547Z" fill="url(#paint0_linear_59_172)"/>
<defs>
<linearGradient id="paint0_linear_59_172" x1="28" y1="0" x2="28" y2="76" gradientUnits="userSpaceOnUse">
<stop stop-color="#AD00FF"/>
<stop offset="1" stop-color="#61008E"/>
</linearGradient>
</defs>
</svg>
