<svg width="237" height="31" viewBox="0 0 237 31" fill="none" xmlns="http://www.w3.org/2000/svg">
<rect width="237" height="31" rx="15.5" fill="url(#paint0_linear_29_628)"/>
<path d="M103.779 13.7643C103.718 13.5681 103.605 13.3932 103.453 13.2591C103.302 13.1249 103.117 13.0366 102.919 13.004L99.8203 12.485L98.3837 9.60806C98.2922 9.42491 98.1535 9.27127 97.9829 9.16401C97.8122 9.05674 97.6162 9 97.4163 9C97.2164 9 97.0204 9.05674 96.8497 9.16401C96.679 9.27127 96.5403 9.42491 96.4488 9.60806L95.0123 12.485L91.9133 13.004C91.7161 13.0371 91.5314 13.1256 91.3797 13.2597C91.228 13.3938 91.115 13.5684 91.0533 13.7643C90.9915 13.9602 90.9833 14.1699 91.0295 14.3703C91.0758 14.5707 91.1747 14.7541 91.3154 14.9004L93.5265 17.1975L93.0479 20.3952C93.0172 20.5989 93.0416 20.8073 93.1184 20.9976C93.1952 21.1879 93.3215 21.3527 93.4833 21.4739C93.6451 21.595 93.8362 21.6678 94.0355 21.6843C94.2349 21.7008 94.4348 21.6603 94.6133 21.5673L97.4163 20.11L100.219 21.5673C100.398 21.6601 100.598 21.7005 100.797 21.6839C100.996 21.6673 101.187 21.5945 101.349 21.4734C101.511 21.3523 101.637 21.1876 101.714 20.9974C101.791 20.8072 101.815 20.5988 101.785 20.3952L101.306 17.1975L103.517 14.9004C103.658 14.7544 103.758 14.571 103.804 14.3705C103.85 14.17 103.842 13.9602 103.779 13.7643Z" fill="white"/>
<path d="M124.779 13.7643C124.718 13.5681 124.605 13.3932 124.453 13.2591C124.302 13.1249 124.117 13.0366 123.919 13.004L120.82 12.485L119.384 9.60806C119.292 9.42491 119.154 9.27127 118.983 9.16401C118.812 9.05674 118.616 9 118.416 9C118.216 9 118.02 9.05674 117.85 9.16401C117.679 9.27127 117.54 9.42491 117.449 9.60806L116.012 12.485L112.913 13.004C112.716 13.0371 112.531 13.1256 112.38 13.2597C112.228 13.3938 112.115 13.5684 112.053 13.7643C111.991 13.9602 111.983 14.1699 112.03 14.3703C112.076 14.5707 112.175 14.7541 112.315 14.9004L114.526 17.1975L114.048 20.3952C114.017 20.5989 114.042 20.8073 114.118 20.9976C114.195 21.1879 114.321 21.3527 114.483 21.4739C114.645 21.595 114.836 21.6678 115.036 21.6843C115.235 21.7008 115.435 21.6603 115.613 21.5673L118.416 20.11L121.219 21.5673C121.398 21.6601 121.598 21.7005 121.797 21.6839C121.996 21.6673 122.187 21.5945 122.349 21.4734C122.511 21.3523 122.637 21.1876 122.714 20.9974C122.791 20.8072 122.815 20.5988 122.785 20.3952L122.306 17.1975L124.517 14.9004C124.658 14.7544 124.758 14.571 124.804 14.3705C124.85 14.17 124.842 13.9602 124.779 13.7643Z" fill="white"/>
<path d="M145.779 13.7643C145.718 13.5681 145.605 13.3932 145.453 13.2591C145.302 13.1249 145.117 13.0366 144.919 13.004L141.82 12.485L140.384 9.60806C140.292 9.42491 140.154 9.27127 139.983 9.16401C139.812 9.05674 139.616 9 139.416 9C139.216 9 139.02 9.05674 138.85 9.16401C138.679 9.27127 138.54 9.42491 138.449 9.60806L137.012 12.485L133.913 13.004C133.716 13.0371 133.531 13.1256 133.38 13.2597C133.228 13.3938 133.115 13.5684 133.053 13.7643C132.991 13.9602 132.983 14.1699 133.03 14.3703C133.076 14.5707 133.175 14.7541 133.315 14.9004L135.526 17.1975L135.048 20.3952C135.017 20.5989 135.042 20.8073 135.118 20.9976C135.195 21.1879 135.321 21.3527 135.483 21.4739C135.645 21.595 135.836 21.6678 136.036 21.6843C136.235 21.7008 136.435 21.6603 136.613 21.5673L139.416 20.11L142.219 21.5673C142.398 21.6601 142.598 21.7005 142.797 21.6839C142.996 21.6673 143.187 21.5945 143.349 21.4734C143.511 21.3523 143.637 21.1876 143.714 20.9974C143.791 20.8072 143.815 20.5988 143.785 20.3952L143.306 17.1975L145.517 14.9004C145.658 14.7544 145.758 14.571 145.804 14.3705C145.85 14.17 145.842 13.9602 145.779 13.7643Z" fill="white"/>
<defs>
<linearGradient id="paint0_linear_29_628" x1="39.5" y1="31" x2="237" y2="1.78149e-05" gradientUnits="userSpaceOnUse">
<stop stop-color="#AD00FF"/>
<stop offset="1" stop-color="#EE008F"/>
</linearGradient>
</defs>
</svg>
