<svg width="237" height="31" viewBox="0 0 237 31" fill="none" xmlns="http://www.w3.org/2000/svg">
<rect width="237" height="31" rx="15.5" fill="url(#paint0_linear_21_5)"/>
<path d="M211.779 14.7162C211.718 14.5201 211.605 14.3452 211.453 14.211C211.302 14.0768 211.117 13.9886 210.919 13.956L207.82 13.437L206.384 10.56C206.292 10.3769 206.154 10.2232 205.983 10.116C205.812 10.0087 205.616 9.95197 205.416 9.95197C205.216 9.95197 205.02 10.0087 204.85 10.116C204.679 10.2232 204.54 10.3769 204.449 10.56L203.012 13.437L199.913 13.956C199.716 13.9891 199.531 14.0775 199.38 14.2117C199.228 14.3458 199.115 14.5204 199.053 14.7163C198.991 14.9122 198.983 15.1219 199.03 15.3223C199.076 15.5227 199.175 15.7061 199.315 15.8524L201.526 18.1495L201.048 21.3472C201.017 21.5508 201.042 21.7593 201.118 21.9496C201.195 22.1399 201.321 22.3047 201.483 22.4258C201.645 22.547 201.836 22.6198 202.036 22.6363C202.235 22.6528 202.435 22.6123 202.613 22.5192L205.416 21.0619L208.219 22.5192C208.398 22.6121 208.598 22.6524 208.797 22.6359C208.996 22.6193 209.187 22.5465 209.349 22.4254C209.511 22.3043 209.637 22.1396 209.714 21.9493C209.791 21.7591 209.815 21.5508 209.785 21.3472L209.306 18.1495L211.517 15.8524C211.658 15.7064 211.758 15.523 211.804 15.3225C211.85 15.1219 211.842 14.9121 211.779 14.7162Z" fill="white"/>
<path d="M220.973 10.5654C220.942 10.4597 220.886 10.3656 220.81 10.2933C220.734 10.2211 220.642 10.1736 220.543 10.156L218.994 9.87654L218.275 8.32742C218.229 8.2288 218.16 8.14607 218.075 8.08831C217.989 8.03055 217.891 8 217.792 8C217.692 8 217.594 8.03055 217.508 8.08831C217.423 8.14607 217.354 8.2288 217.308 8.32742L216.59 9.87654L215.04 10.156C214.941 10.1738 214.849 10.2215 214.773 10.2937C214.697 10.3659 214.641 10.4599 214.61 10.5654C214.579 10.6709 214.575 10.7838 214.598 10.8917C214.621 10.9996 214.671 11.0984 214.741 11.1772L215.847 12.414L215.607 14.1359C215.592 14.2455 215.604 14.3578 215.643 14.4603C215.681 14.5627 215.744 14.6515 215.825 14.7167C215.906 14.7819 216.001 14.8211 216.101 14.83C216.201 14.8389 216.301 14.8171 216.39 14.767L217.792 13.9823L219.193 14.767C219.282 14.817 219.382 14.8387 219.482 14.8298C219.582 14.8209 219.677 14.7817 219.758 14.7164C219.839 14.6512 219.902 14.5625 219.94 14.4601C219.979 14.3577 219.991 14.2455 219.976 14.1359L219.736 12.414L220.842 11.1772C220.913 11.0985 220.962 10.9998 220.985 10.8918C221.008 10.7838 221.004 10.6709 220.973 10.5654Z" fill="white"/>
<defs>
<linearGradient id="paint0_linear_21_5" x1="39.5" y1="31" x2="237" y2="1.78149e-05" gradientUnits="userSpaceOnUse">
<stop stop-color="#AD00FF"/>
<stop offset="1" stop-color="#EE008F"/>
</linearGradient>
</defs>
</svg>
