<svg width="134" height="39" viewBox="0 0 134 39" fill="none" xmlns="http://www.w3.org/2000/svg">
<path d="M20.5114 13.5568C20.3977 12.3068 19.892 11.3352 18.9943 10.642C18.108 9.9375 16.8409 9.58523 15.1932 9.58523C14.1023 9.58523 13.1932 9.72727 12.4659 10.0114C11.7386 10.2955 11.1932 10.6875 10.8295 11.1875C10.4659 11.6761 10.2784 12.2386 10.267 12.875C10.2443 13.3977 10.3466 13.858 10.5739 14.2557C10.8125 14.6534 11.1534 15.0057 11.5966 15.3125C12.0511 15.608 12.5966 15.8693 13.233 16.0966C13.8693 16.3239 14.5852 16.5227 15.3807 16.6932L18.3807 17.375C20.108 17.75 21.6307 18.25 22.9489 18.875C24.2784 19.5 25.392 20.2443 26.2898 21.108C27.1989 21.9716 27.8864 22.9659 28.3523 24.0909C28.8182 25.2159 29.0568 26.4773 29.0682 27.875C29.0568 30.0795 28.5 31.9716 27.3977 33.5511C26.2955 35.1307 24.7102 36.3409 22.642 37.1818C20.5852 38.0227 18.1023 38.4432 15.1932 38.4432C12.2727 38.4432 9.72727 38.0057 7.55682 37.1307C5.38636 36.2557 3.69886 34.9261 2.49432 33.142C1.28977 31.358 0.670455 29.1023 0.636364 26.375H8.71591C8.78409 27.5 9.08523 28.4375 9.61932 29.1875C10.1534 29.9375 10.8864 30.5057 11.8182 30.892C12.7614 31.2784 13.8523 31.4716 15.0909 31.4716C16.2273 31.4716 17.1932 31.3182 17.9886 31.0114C18.7955 30.7045 19.4148 30.2784 19.8466 29.733C20.2784 29.1875 20.5 28.5625 20.5114 27.858C20.5 27.1989 20.2955 26.6364 19.8977 26.1705C19.5 25.6932 18.8864 25.2841 18.0568 24.9432C17.2386 24.5909 16.1932 24.267 14.9205 23.9716L11.2727 23.1193C8.25 22.4261 5.86932 21.3068 4.13068 19.7614C2.39205 18.2045 1.52841 16.1023 1.53977 13.4545C1.52841 11.2955 2.10795 9.40341 3.27841 7.77841C4.44886 6.15341 6.06818 4.88636 8.13636 3.97727C10.2045 3.06818 12.5625 2.61364 15.2102 2.61364C17.9148 2.61364 20.2614 3.07386 22.25 3.99432C24.25 4.90341 25.8011 6.18182 26.9034 7.82955C28.0057 9.47727 28.5682 11.3864 28.5909 13.5568H20.5114ZM45.5511 38.4943C42.8011 38.4943 40.4375 37.9318 38.4602 36.8068C36.4943 35.6705 34.9773 34.0909 33.9091 32.0682C32.8523 30.0341 32.3239 27.6761 32.3239 24.9943C32.3239 22.3011 32.8523 19.9432 33.9091 17.9205C34.9773 15.8864 36.4943 14.3068 38.4602 13.1818C40.4375 12.0455 42.8011 11.4773 45.5511 11.4773C48.3011 11.4773 50.6591 12.0455 52.625 13.1818C54.6023 14.3068 56.1193 15.8864 57.1761 17.9205C58.2443 19.9432 58.7784 22.3011 58.7784 24.9943C58.7784 27.6761 58.2443 30.0341 57.1761 32.0682C56.1193 34.0909 54.6023 35.6705 52.625 36.8068C50.6591 37.9318 48.3011 38.4943 45.5511 38.4943ZM45.6023 32.2045C46.6023 32.2045 47.4489 31.8977 48.142 31.2841C48.8352 30.6705 49.3636 29.8182 49.7273 28.7273C50.1023 27.6364 50.2898 26.375 50.2898 24.9432C50.2898 23.4886 50.1023 22.2159 49.7273 21.125C49.3636 20.0341 48.8352 19.1818 48.142 18.5682C47.4489 17.9545 46.6023 17.6477 45.6023 17.6477C44.5682 17.6477 43.6932 17.9545 42.9773 18.5682C42.2727 19.1818 41.733 20.0341 41.358 21.125C40.9943 22.2159 40.8125 23.4886 40.8125 24.9432C40.8125 26.375 40.9943 27.6364 41.358 28.7273C41.733 29.8182 42.2727 30.6705 42.9773 31.2841C43.6932 31.8977 44.5682 32.2045 45.6023 32.2045ZM71.3835 3.09091V38H63.0483V3.09091H71.3835Z" fill="url(#paint0_linear_29_623)"/>
<path d="M76.6889 38V3.09091H100.518V9.94318H85.1264V17.1023H99.0014V23.9716H85.1264V38H76.6889ZM104.767 38V11.8182H113.102V38H104.767ZM108.943 8.76705C107.773 8.76705 106.767 8.38068 105.926 7.60795C105.085 6.82386 104.665 5.88068 104.665 4.77841C104.665 3.6875 105.085 2.75568 105.926 1.98295C106.767 1.19886 107.773 0.806816 108.943 0.806816C110.125 0.806816 111.131 1.19886 111.96 1.98295C112.801 2.75568 113.222 3.6875 113.222 4.77841C113.222 5.88068 112.801 6.82386 111.96 7.60795C111.131 8.38068 110.125 8.76705 108.943 8.76705ZM133.186 11.8182V17.9545H116.669V11.8182H133.186ZM120.129 5.54545H128.464V29.767C128.464 30.2784 128.544 30.6932 128.703 31.0114C128.874 31.3182 129.118 31.5398 129.436 31.6761C129.754 31.8011 130.135 31.8636 130.578 31.8636C130.896 31.8636 131.232 31.8352 131.584 31.7784C131.947 31.7102 132.22 31.6534 132.402 31.608L133.663 37.625C133.266 37.7386 132.703 37.8807 131.976 38.0511C131.26 38.2216 130.402 38.3295 129.402 38.375C127.447 38.4659 125.771 38.2386 124.374 37.6932C122.987 37.1364 121.925 36.2727 121.186 35.1023C120.459 33.9318 120.107 32.4602 120.129 30.6875V5.54545Z" fill="url(#paint1_linear_29_623)"/>
<defs>
<linearGradient id="paint0_linear_29_623" x1="67" y1="-8" x2="67" y2="50" gradientUnits="userSpaceOnUse">
<stop/>
<stop offset="1" stop-color="#1B1B1B"/>
</linearGradient>
<linearGradient id="paint1_linear_29_623" x1="67" y1="-8" x2="67" y2="50" gradientUnits="userSpaceOnUse">
<stop stop-color="#8F00FF"/>
<stop offset="1" stop-color="#470080"/>
</linearGradient>
</defs>
</svg>
